HIERARCHY
ROOT Root
{
  OFFSET 0.0 0.0 0.0
  CHANNELS 6 Xposition Yposition Zposition Zrotation Yrotation Xrotation
  JOINT Hips
  {
    OFFSET 0.0 100.0 0.0
    CHANNELS 6 Xposition Yposition Zposition Zrotation Yrotation Xrotation
    JOINT Spine1
    {
      OFFSET -0.013727 5.003763 -0.053727
      CHANNELS 3 Zrotation Yrotation Xrotation
      JOINT Spine2
      {
        OFFSET -0.0 7.125301 -0.029825
        CHANNELS 3 Zrotation Yrotation Xrotation
        JOINT Chest
        {
          OFFSET -1e-06 7.550063 -0.815971
          CHANNELS 3 Zrotation Yrotation Xrotation
          JOINT Neck1
          {
            OFFSET -0.181677 26.311295 -0.553348
            CHANNELS 3 Zrotation Yrotation Xrotation
            JOINT Neck2
            {
              OFFSET -3e-06 7.709397 2.302585
              CHANNELS 3 Zrotation Yrotation Xrotation
              JOINT Head
              {
                OFFSET -5e-06 6.128916 1.953709
                CHANNELS 3 Zrotation Yrotation Xrotation
                JOINT HeadEnd
                {
                  OFFSET 0.003598 16.065403 -1.835379
                  CHANNELS 3 Zrotation Yrotation Xrotation
                }
                JOINT Jaw
                {
                  OFFSET 0.002637 0.475592 3.094941
                  CHANNELS 3 Zrotation Yrotation Xrotation
                }
                JOINT LeftEye
                {
                  OFFSET 3.206381 5.380205 7.586883
                  CHANNELS 3 Zrotation Yrotation Xrotation
                }
                JOINT RightEye
                {
                  OFFSET -3.22244 5.361869 7.558234
                  CHANNELS 3 Zrotation Yrotation Xrotation
                }
              }
            }
          }
          JOINT LeftShoulder
          {
            OFFSET 1.621652 23.237164 5.113413
            CHANNELS 3 Zrotation Yrotation Xrotation
            JOINT LeftArm
            {
              OFFSET 14.919846 2e-06 -5.502326
              CHANNELS 3 Zrotation Yrotation Xrotation
              JOINT LeftForeArm
              {
                OFFSET 28.739307 0.0 -0.002588
                CHANNELS 3 Zrotation Yrotation Xrotation
                JOINT LeftHand
                {
                  OFFSET 27.093981 -1e-06 0.002609
                  CHANNELS 3 Zrotation Yrotation Xrotation
                  JOINT LeftHandThumb1
                  {
                    OFFSET 2.276482 -1.392045 3.191413
                    CHANNELS 3 Zrotation Yrotation Xrotation
                    JOINT LeftHandThumb2
                    {
                      OFFSET 4.012836 -1.828127 1.641654
                      CHANNELS 3 Zrotation Yrotation Xrotation
                      JOINT LeftHandThumb3
                      {
                        OFFSET 2.798515 0.0 -3e-06
                        CHANNELS 3 Zrotation Yrotation Xrotation
                        JOINT LeftHandThumbEnd
                        {
                          OFFSET 3.180793 -4e-06 4e-06
                          CHANNELS 3 Zrotation Yrotation Xrotation
                        }
                      }
                    }
                  }
                  JOINT LeftHandIndex1
                  {
                    OFFSET 3.247555 -0.531998 2.296169
                    CHANNELS 3 Zrotation Yrotation Xrotation
                    JOINT LeftHandIndex2
                    {
                      OFFSET 6.364578 0.01206 0.1786
                      CHANNELS 3 Zrotation Yrotation Xrotation
                      JOINT LeftHandIndex3
                      {
                        OFFSET 3.662364 0.0 0.0
                        CHANNELS 3 Zrotation Yrotation Xrotation
                        JOINT LeftHandIndex4
                        {
                          OFFSET 2.329242 4e-06 4e-06
                          CHANNELS 3 Zrotation Yrotation Xrotation
                          JOINT LeftHandIndexEnd
                          {
                            OFFSET 2.759615 -0.180537 -0.113024
                            CHANNELS 3 Zrotation Yrotation Xrotation
                          }
                        }
                      }
                    }
                  }
                  JOINT LeftHandMiddle1
                  {
                    OFFSET 3.163495 0.240981 1.000332
                    CHANNELS 3 Zrotation Yrotation Xrotation
                    JOINT LeftHandMiddle2
                    {
                      OFFSET 6.19078 -0.259278 -1.002548
                      CHANNELS 3 Zrotation Yrotation Xrotation
                      JOINT LeftHandMiddle3
                      {
                        OFFSET 4.35652 -4e-06 -1e-06
                        CHANNELS 3 Zrotation Yrotation Xrotation
                        JOINT LeftHandMiddle4
                        {
                          OFFSET 2.996877 -8e-06 0.0
                          CHANNELS 3 Zrotation Yrotation Xrotation
                          JOINT LeftHandMiddleEnd
                          {
                            OFFSET 2.304287 -0.294569 -0.031741
                            CHANNELS 3 Zrotation Yrotation Xrotation
                          }
                        }
                      }
                    }
                  }
                  JOINT LeftHandRing1
                  {
                    OFFSET 2.882643 -0.053652 -0.322543
                    CHANNELS 3 Zrotation Yrotation Xrotation
                    JOINT LeftHandRing2
                    {
                      OFFSET 5.854541 -0.486202 -1.373841
                      CHANNELS 3 Zrotation Yrotation Xrotation
                      JOINT LeftHandRing3
                      {
                        OFFSET 4.350578 0.0 3e-06
                        CHANNELS 3 Zrotation Yrotation Xrotation
                        JOINT LeftHandRing4
                        {
                          OFFSET 2.651321 7e-06 2e-06
                          CHANNELS 3 Zrotation Yrotation Xrotation
                          JOINT LeftHandRingEnd
                          {
                            OFFSET 1.936105 0.077687 -7.1e-05
                            CHANNELS 3 Zrotation Yrotation Xrotation
                          }
                        }
                      }
                    }
                  }
                  JOINT LeftHandPinky1
                  {
                    OFFSET 2.8655 -0.310005 -1.600378
                    CHANNELS 3 Zrotation Yrotation Xrotation
                    JOINT LeftHandPinky2
                    {
                      OFFSET 5.087849 -1.331141 -1.77123
                      CHANNELS 3 Zrotation Yrotation Xrotation
                      JOINT LeftHandPinky3
                      {
                        OFFSET 3.070974 4e-06 0.0
                        CHANNELS 3 Zrotation Yrotation Xrotation
                        JOINT LeftHandPinky4
                        {
                          OFFSET 1.549672 0.0 1e-06
                          CHANNELS 3 Zrotation Yrotation Xrotation
                          JOINT LeftHandPinkyEnd
                          {
                            OFFSET 1.944893 -0.157802 0.057219
                            CHANNELS 3 Zrotation Yrotation Xrotation
                          }
                        }
                      }
                    }
                  }
                }
              }
            }
          }
          JOINT RightShoulder
          {
            OFFSET -1.380118 23.180309 5.214158
            CHANNELS 3 Zrotation Yrotation Xrotation
            JOINT RightArm
            {
              OFFSET -15.037196 1.2e-05 -5.545604
              CHANNELS 3 Zrotation Yrotation Xrotation
              JOINT RightForeArm
              {
                OFFSET -28.736639 2e-06 -0.002597
                CHANNELS 3 Zrotation Yrotation Xrotation
                JOINT RightHand
                {
                  OFFSET -27.133619 -0.0 0.002613
                  CHANNELS 3 Zrotation Yrotation Xrotation
                  JOINT RightHandThumb1
                  {
                    OFFSET -2.274032 -1.383988 3.163127
                    CHANNELS 3 Zrotation Yrotation Xrotation
                    JOINT RightHandThumb2
                    {
                      OFFSET -4.011429 -1.827466 1.640914
                      CHANNELS 3 Zrotation Yrotation Xrotation
                      JOINT RightHandThumb3
                      {
                        OFFSET -2.794935 -4e-06 -3e-06
                        CHANNELS 3 Zrotation Yrotation Xrotation
                        JOINT RightHandThumbEnd
                        {
                          OFFSET -3.183852 4e-06 1e-06
                          CHANNELS 3 Zrotation Yrotation Xrotation
                        }
                      }
                    }
                  }
                  JOINT RightHandIndex1
                  {
                    OFFSET -3.253266 -0.520057 2.282866
                    CHANNELS 3 Zrotation Yrotation Xrotation
                    JOINT RightHandIndex2
                    {
                      OFFSET -6.341917 0.012471 0.178266
                      CHANNELS 3 Zrotation Yrotation Xrotation
                      JOINT RightHandIndex3
                      {
                        OFFSET -3.654871 -8e-06 -0.0
                        CHANNELS 3 Zrotation Yrotation Xrotation
                        JOINT RightHandIndex4
                        {
                          OFFSET -2.327586 0.0 1e-06
                          CHANNELS 3 Zrotation Yrotation Xrotation
                          JOINT RightHandIndexEnd
                          {
                            OFFSET -2.76179 -0.180656 -0.113078
                            CHANNELS 3 Zrotation Yrotation Xrotation
                          }
                        }
                      }
                    }
                  }
                  JOINT RightHandMiddle1
                  {
                    OFFSET -3.168106 0.246593 1.00103
                    CHANNELS 3 Zrotation Yrotation Xrotation
                    JOINT RightHandMiddle2
                    {
                      OFFSET -6.180828 -0.258836 -1.000895
                      CHANNELS 3 Zrotation Yrotation Xrotation
                      JOINT RightHandMiddle3
                      {
                        OFFSET -4.348901 0.0 -0.0
                        CHANNELS 3 Zrotation Yrotation Xrotation
                        JOINT RightHandMiddle4
                        {
                          OFFSET -3.00024 -4e-06 -2e-06
                          CHANNELS 3 Zrotation Yrotation Xrotation
                          JOINT RightHandMiddleEnd
                          {
                            OFFSET -2.30252 -0.29437 -0.031706
                            CHANNELS 3 Zrotation Yrotation Xrotation
                          }
                        }
                      }
                    }
                  }
                  JOINT RightHandRing1
                  {
                    OFFSET -2.88569 -0.067952 -0.308858
                    CHANNELS 3 Zrotation Yrotation Xrotation
                    JOINT RightHandRing2
                    {
                      OFFSET -5.854198 -0.48613 -1.373731
                      CHANNELS 3 Zrotation Yrotation Xrotation
                      JOINT RightHandRing3
                      {
                        OFFSET -4.33881 -4e-06 -0.0
                        CHANNELS 3 Zrotation Yrotation Xrotation
                        JOINT RightHandRing4
                        {
                          OFFSET -2.654903 -4e-06 4e-06
                          CHANNELS 3 Zrotation Yrotation Xrotation
                          JOINT RightHandRingEnd
                          {
                            OFFSET -1.933568 0.077527 -5.2e-05
                            CHANNELS 3 Zrotation Yrotation Xrotation
                          }
                        }
                      }
                    }
                  }
                  JOINT RightHandPinky1
                  {
                    OFFSET -2.866425 -0.342796 -1.584145
                    CHANNELS 3 Zrotation Yrotation Xrotation
                    JOINT RightHandPinky2
                    {
                      OFFSET -5.091371 -1.332055 -1.772385
                      CHANNELS 3 Zrotation Yrotation Xrotation
                      JOINT RightHandPinky3
                      {
                        OFFSET -3.062664 -4e-06 1e-06
                        CHANNELS 3 Zrotation Yrotation Xrotation
                        JOINT RightHandPinky4
                        {
                          OFFSET -1.546529 4e-06 -2e-06
                          CHANNELS 3 Zrotation Yrotation Xrotation
                          JOINT RightHandPinkyEnd
                          {
                            OFFSET -1.945119 -0.157718 0.057211
                            CHANNELS 3 Zrotation Yrotation Xrotation
                          }
                        }
                      }
                    }
                  }
                }
              }
            }
          }
        }
      }
    }
    JOINT LeftLeg
    {
      OFFSET 10.043214 -8.434526 2.595655
      CHANNELS 3 Zrotation Yrotation Xrotation
      JOINT LeftShin
      {
        OFFSET -1e-06 -43.221752 -0.802913
        CHANNELS 3 Zrotation Yrotation Xrotation
        JOINT LeftFoot
        {
          OFFSET 1e-06 -42.155094 -3.481523
          CHANNELS 3 Zrotation Yrotation Xrotation
          JOINT LeftToeBase
          {
            OFFSET 0.0 -5.059472 13.231529
            CHANNELS 3 Zrotation Yrotation Xrotation
            JOINT LeftToeEnd
            {
              OFFSET -0.009607 -1.647619 6.513017
              CHANNELS 3 Zrotation Yrotation Xrotation
            }
          }
        }
      }
    }
    JOINT RightLeg
    {
      OFFSET -10.047278 -8.29526 2.620317
      CHANNELS 3 Zrotation Yrotation Xrotation
      JOINT RightShin
      {
        OFFSET 1e-06 -43.362206 -0.805556
        CHANNELS 3 Zrotation Yrotation Xrotation
        JOINT RightFoot
        {
          OFFSET 2e-06 -42.117393 -3.478398
          CHANNELS 3 Zrotation Yrotation Xrotation
          JOINT RightToeBase
          {
            OFFSET -0.0 -5.079609 13.284196
            CHANNELS 3 Zrotation Yrotation Xrotation
            JOINT RightToeEnd
            {
              OFFSET 0.009532 -1.634378 6.460591
              CHANNELS 3 Zrotation Yrotation Xrotation
            }
          }
        }
      }
    }
  }
}
MOTION
Frames: 4
Frame Time: 0.03333333333333333
-0.186807 0.0 6.491049 0.0 -0.122924 0.0 0.0 100.656769 0.0 -0.085709 0.002576 1.760172 -0.442939 0.014863 0.306639 -0.602376 -0.058936 -4.85573 -0.142965 -1.738575 13.411385 0.042915 2.546663 -2.726555 -0.713525 -1.505663 -3.499502 1.105595 -2.565183 -22.001032 -0.000215 -0.000225 -1.1e-05 0.003916 0.035675 0.099899 0.644495 -3.737297 -10.397276 -0.638258 3.829809 -10.397502 -17.998795 -8.216434 20.083025 -54.046658 -14.116441 21.525137 0.097701 -36.054142 -0.3092 -1.254245 3.195806 8.967349 -5.880309 9.817396 0.851623 -10.949136 -0.344155 7.201216 -0.006553 8.77718 0.005431 -15.554496 18.05785 6.284006 -1.845594 2.501534 -2.498808 -10.17005 4.675924 4.603292 -20.994884 0.003576 0.005402 -21.248322 2.448961 -3.610456 0.01003 0.002685 0.011232 -1.36984 2.253517 -0.732742 -21.343307 0.577159 2.993911 -13.829098 0.002925 0.005875 -23.899115 -0.2385 -0.851287 -60.516338 2.397693 -1.13711 -0.299094 1.694331 0.833101 -14.21681 0.075285 1.285487 -34.23045 -0.283685 0.983013 -20.049906 0.956316 1.223643 -0.015328 0.00207 -0.008024 -3.450417 0.816955 0.494817 -15.925839 -3.192626 3.009865 -6.335253 0.001318 -0.011311 -18.0903 3.644845 -4.90721 -0.015274 0.001011 -0.000315 19.545767 11.469011 20.801369 52.914848 19.460999 32.243732 0.542431 33.187447 0.31509 3.998157 4.884358 10.605495 2.222923 -5.255085 -3.146218 14.288707 -0.819966 6.989119 0.003582 -12.684889 -0.001329 16.144041 -17.395632 2.473981 1.671659 -1.975129 -2.86325 4.731821 -4.159584 4.980792 11.021726 -0.001205 -0.006893 12.122499 -3.747174 -2.871919 0.009459 0.006268 0.006718 1.29713 -1.92807 -1.485158 14.793148 0.557054 3.853153 14.24513 -1.34713 -6.664365 19.592381 0.13996 -0.660702 50.204147 -0.439054 -5.967133 0.361941 -1.510187 -0.033725 20.218739 3.668069 2.322255 18.794704 -0.002317 -0.010262 10.742913 -0.48503 1.400999 0.005358 0.016144 0.000466 3.289949 0.299514 -0.59094 21.474354 11.811052 2.271957 8.161328 -0.016018 -0.004802 18.40337 -3.812707 -4.949268 0.008349 -0.000705 -0.000586 5.342013 11.613847 -4.345679 -0.069223 -0.433508 2.107365 -6.864762 -1.50625 1.738635 1.651938 -1.930846 -1.776412 0.000249 0.002186 0.005941 -2.847037 -9.733782 -6.401549 0.111465 0.09845 4.988636 3.350335 1.71357 -0.087425 -1.431007 0.951174 -1.297032 -0.000308 -0.001713 0.002255 
-0.280974 0.0 5.833199 0.0 -0.056525 0.0 0.0 100.731979 0.0 -0.101482 0.004143 2.365021 -0.42731 0.005128 0.874971 -0.570509 0.041662 -4.691965 -0.172574 -1.615687 13.508007 0.054719 2.498847 -3.287088 -0.742641 -1.612999 -3.461675 1.122817 -2.609369 -22.752695 0.000507 -0.000664 0.006404 0.013781 0.045167 0.100574 0.656951 -3.726995 -10.415639 -0.630784 3.840679 -10.416952 -17.422222 -8.511314 20.123857 -54.421047 -14.733417 21.263891 0.125905 -36.710354 -0.290568 -1.541672 2.978306 9.440947 -5.925699 9.806505 0.797891 -10.944303 -0.322451 7.184689 0.002173 8.787671 -0.002337 -15.551435 18.063229 6.317484 -1.833785 2.495188 -2.530563 -10.169926 4.683773 4.639586 -20.999342 0.003226 0.017615 -21.260435 2.463567 -3.590531 -0.013447 0.003782 0.005026 -1.356671 2.244993 -0.750366 -21.34782 0.575065 3.022403 -13.826531 -0.001239 0.018429 -23.881008 -0.258317 -0.819099 -60.54792 2.444652 -1.029783 -0.29115 1.696051 0.817869 -14.223451 0.070124 1.328613 -34.260429 -0.300425 0.980574 -20.072365 0.986641 1.219117 0.008443 0.006904 0.010316 -3.450376 0.803942 0.499459 -15.922979 -3.189922 3.001217 -6.34544 -0.008579 0.012622 -18.13306 3.666126 -4.915057 0.000344 0.006875 0.010079 18.77516 11.78896 20.91581 53.223469 20.008869 32.039993 0.540752 33.747643 0.326808 3.965802 5.008716 11.014259 2.222729 -5.256532 -3.264685 14.276694 -0.812323 6.925356 0.005574 -12.693059 0.001252 16.050976 -17.354443 2.52985 1.663646 -1.959759 -2.884881 4.737411 -4.177528 5.005594 11.031729 -0.008508 -0.005397 12.14345 -3.740943 -2.867542 -0.00569 -0.010674 -0.00023 1.298319 -1.939316 -1.497178 14.800016 0.566893 3.865502 14.25227 -1.366463 -6.651604 19.656801 0.14802 -0.653678 50.15527 -0.472159 -5.983839 0.3544 -1.53339 -0.030466 20.224611 3.69623 2.330878 18.78392 0.007682 -0.005915 10.741585 -0.492321 1.398747 -0.00073 -0.002515 -0.009211 3.286747 0.284261 -0.576546 21.474743 11.831085 2.272535 8.166655 0.005718 0.001284 18.403725 -3.801831 -4.947378 -0.00784 -0.011222 0.002747 5.184458 11.500255 -5.304408 -0.074181 -0.429282 1.873152 -6.649888 -1.284227 2.458656 1.642552 -1.934413 -1.78328 0.000819 0.001577 0.002673 -2.663569 -9.715969 -7.035166 0.089309 0.03417 4.279004 3.275369 1.693147 0.746602 -1.429552 0.910167 -1.448684 0.000865 -0.002245 -0.000728 
-0.329152 0.0 4.962396 0.0 0.057 0.0 0.0 100.813652 0.0 -0.095298 0.005235 3.09415 -0.435023 0.038202 1.604333 -0.552233 0.074748 -4.510424 -0.19189 -1.429139 13.734869 0.043605 2.483982 -3.896539 -0.764835 -1.703348 -3.455636 1.206072 -2.679043 -24.034687 0.000207 0.000573 -0.000655 0.015643 0.040229 0.105809 0.655995 -3.734816 -10.416161 -0.629283 3.839354 -10.447589 -16.828272 -8.788996 20.229225 -54.72961 -15.573067 20.919952 0.175718 -37.494282 -0.348621 -1.653961 2.581145 10.030894 -5.894962 9.816086 0.730006 -10.947316 -0.367582 7.132524 -0.002265 8.783842 0.00842 -15.595079 18.037552 6.329481 -1.841074 2.505916 -2.507624 -10.165479 4.682154 4.635698 -20.960926 -0.001432 0.003464 -21.212194 2.459601 -3.589311 0.003465 -0.000431 -0.008966 -1.353761 2.253721 -0.746539 -21.342834 0.581512 3.023655 -13.826746 -0.006752 0.008094 -23.859735 -0.247166 -0.832958 -60.560413 2.394376 -1.043141 -0.294525 1.699264 0.846816 -14.21749 0.070441 1.30793 -34.248676 -0.290319 0.960892 -20.052412 0.945772 1.210663 -0.006638 0.015028 0.000552 -3.431802 0.812023 0.493142 -15.942381 -3.186646 3.027321 -6.323446 0.008207 0.006564 -18.105675 3.636204 -4.92178 0.006618 -0.011338 0.002537 17.885324 12.313031 21.133678 53.558903 20.8165 32.212044 0.45855 34.234299 0.293645 3.744608 5.232363 11.586828 2.194532 -5.214568 -3.16125 14.265584 -0.832986 6.964024 0.009032 -12.705761 -0.007713 15.997282 -17.426992 2.636817 1.671583 -1.95278 -2.871171 4.730319 -4.19377 4.99445 11.026219 0.006404 -0.003472 12.11408 -3.742104 -2.886225 0.001205 -0.001823 0.004563 1.298956 -1.934968 -1.495814 14.801966 0.560595 3.861509 14.248273 -1.340671 -6.678469 19.650871 0.144611 -0.670909 50.074108 -0.486881 -5.940356 0.357411 -1.525657 -0.02272 20.224792 3.687662 2.29842 18.789858 0.008466 -0.001808 10.74811 -0.495574 1.38659 -0.001486 0.009254 -0.004563 3.297059 0.282352 -0.601184 21.49201 11.845022 2.275298 8.160317 -0.01475 -0.007491 18.416586 -3.783971 -4.959953 0.000387 -0.003144 -0.001596 4.942906 11.443603 -6.647356 -0.08101 -0.424941 1.808973 -6.511715 -1.084711 3.168795 1.643819 -1.934921 -1.795799 0.00021 0.001954 0.005127 -2.495014 -9.584992 -7.97905 0.067763 -0.022177 3.725769 3.143589 1.647944 1.630003 -1.42083 0.882631 -1.54685 0.000385 0.002017 -0.000737 
-0.413987 0.0 4.044342 0.0 0.088735 0.0 0.0 100.826797 0.0 -0.072972 0.005298 3.984393 -0.476554 0.064339 2.461537 -0.554065 0.131654 -4.251314 -0.225354 -1.260287 13.907945 0.038129 2.472676 -4.619602 -0.803645 -1.720295 -3.473499 1.32788 -2.684572 -25.423624 6.2e-05 6.6e-05 0.005748 0.015129 0.038639 0.118443 0.646672 -3.742262 -10.44153 -0.61748 3.843355 -10.467504 -16.151958 -8.830041 20.22427 -55.038277 -16.442997 20.469822 0.089667 -38.588856 -0.317774 -1.635561 2.098267 10.551709 -5.918772 9.840615 0.725802 -10.944342 -0.346701 7.160383 0.012206 8.777895 -0.009524 -15.594372 18.028093 6.35197 -1.834148 2.492041 -2.522203 -10.150967 4.662228 4.64113 -20.959553 -0.015098 0.011704 -21.164469 2.456125 -3.56167 -0.007971 0.00464 0.002721 -1.340204 2.226583 -0.753341 -21.347273 0.560637 3.029531 -13.828463 -0.006754 0.024511 -23.92013 -0.284578 -0.812918 -60.788303 2.450801 -0.979488 -0.266721 1.666244 0.823748 -14.229641 0.095982 1.319808 -34.182243 -0.326083 1.005674 -20.024719 0.965423 1.228546 -0.002719 0.004782 0.000447 -3.405919 0.753677 0.497896 -15.9547 -3.154627 2.998687 -6.344804 0.002193 0.006628 -18.100773 3.629342 -4.867099 0.005269 0.004827 8.3e-05 17.015799 12.818867 20.836309 53.845867 21.920639 32.336548 0.532966 34.589302 0.269489 3.461851 5.359386 12.541048 2.260153 -5.303879 -3.185031 14.312541 -0.824813 6.938277 -0.004367 -12.686292 0.00707 15.788508 -17.380678 2.738513 1.658186 -1.945235 -2.884897 4.721821 -4.167793 5.007195 11.005828 0.001431 0.009404 12.081673 -3.731219 -2.851546 0.000117 0.002776 -0.001063 1.277242 -1.911265 -1.490059 14.789569 0.561921 3.868646 14.238111 -1.320748 -6.653314 19.609262 0.148577 -0.631877 49.931229 -0.596764 -5.880538 0.335113 -1.480661 -0.021932 20.200394 3.668704 2.308372 18.758104 -0.013523 0.012448 10.733718 -0.481526 1.401621 0.000884 0.000544 0.001769 3.251131 0.338587 -0.566151 21.480204 11.811754 2.240687 8.152817 -0.021925 0.007197 18.382898 -3.792851 -4.892354 0.009281 -0.012252 -0.007935 4.64655 11.402861 -8.356572 -0.08513 -0.40291 1.975421 -6.443084 -0.803854 3.831986 1.641289 -1.928141 -1.697132 -0.000159 -0.002259 0.009136 -2.215255 -9.394915 -9.928679 0.052393 -0.08225 4.382244 2.928435 1.644071 2.012 -1.416358 0.877588 -1.57427 -0.000367 -0.000557 -0.001077 
